<svg width="32" height="32" viewBox="0 0 32 32" fill="none" xmlns="http://www.w3.org/2000/svg">
<path d="M30.872 19.2C31.0208 19.1998 31.1681 19.229 31.3054 19.286C31.4428 19.3431 31.5675 19.4267 31.6724 19.5322C31.7773 19.6376 31.8602 19.7628 31.9164 19.9005C31.9727 20.0382 32.0011 20.1857 32 20.3344V25.4608C32.0011 25.6089 31.9729 25.7557 31.9172 25.8928C31.8615 26.03 31.7792 26.1548 31.6752 26.2602C31.5712 26.3656 31.4474 26.4494 31.311 26.5069C31.1745 26.5643 31.0281 26.5944 30.88 26.5952C30.732 26.5944 30.5855 26.5643 30.4491 26.5069C30.3126 26.4494 30.1889 26.3656 30.0848 26.2602C29.9808 26.1548 29.8986 26.03 29.8429 25.8928C29.7871 25.7557 29.759 25.6089 29.76 25.4608V23.6608C26.8464 28.5504 21.4384 32 15.6112 32C8.55523 32 2.64163 27.6464 0.0768284 20.936C-0.0308606 20.6564 -0.0240761 20.3457 0.0957126 20.0711C0.215501 19.7964 0.43865 19.5801 0.716828 19.4688C1.29283 19.2432 1.94243 19.5328 2.16643 20.1168C4.40643 25.976 9.50723 29.7328 15.6112 29.7328C21.0048 29.7328 26.0432 26.2416 28.3904 21.4864L26.0368 21.5024C25.8888 21.5026 25.7421 21.4736 25.6053 21.4171C25.4684 21.3606 25.3441 21.2777 25.2393 21.1731C25.1345 21.0684 25.0514 20.9442 24.9947 20.8074C24.938 20.6707 24.9088 20.5241 24.9088 20.376C24.905 20.0771 25.0199 19.7889 25.2284 19.5747C25.4369 19.3605 25.7219 19.2378 26.0208 19.2336L30.872 19.2ZM16.392 0C23.4448 0 29.36 4.3536 31.9248 11.064C32.0325 11.3436 32.0257 11.6543 31.9059 11.9289C31.7862 12.2036 31.563 12.4199 31.2848 12.5312C31.1472 12.5849 31.0003 12.6107 30.8526 12.6071C30.7049 12.6035 30.5594 12.5706 30.4245 12.5103C30.2897 12.45 30.1681 12.3635 30.0669 12.2559C29.9658 12.1482 29.887 12.0216 29.8352 11.8832C27.5952 6.024 22.4944 2.2672 16.3904 2.2672C10.9968 2.2672 5.95843 5.7584 3.61123 10.5136L5.96483 10.4976C6.11288 10.4974 6.25953 10.5264 6.39637 10.5829C6.53322 10.6394 6.65758 10.7223 6.76235 10.8269C6.86711 10.9316 6.95023 11.0558 7.00693 11.1926C7.06364 11.3293 7.09283 11.4759 7.09283 11.624C7.09667 11.9229 6.98172 12.2111 6.77322 12.4253C6.56472 12.6395 6.27972 12.7622 5.98083 12.7664L1.12803 12.8C0.979297 12.8002 0.831996 12.771 0.694626 12.714C0.557255 12.6569 0.432536 12.5733 0.327665 12.4678C0.222794 12.3624 0.139848 12.2372 0.0836143 12.0995C0.0273804 11.9618 -0.00102807 11.8143 2.84202e-05 11.6656V6.5392C2.84202e-05 5.912 0.500828 5.4048 1.12003 5.4048C1.73763 5.4048 2.24003 5.912 2.24003 6.5392V8.3392C5.15363 3.4496 10.5616 0 16.3888 0H16.392Z" fill="white"/>
</svg>
