<svg width="48" height="46" viewBox="0 0 48 46" fill="none" xmlns="http://www.w3.org/2000/svg">
<path d="M23.9789 0.0236226C10.9377 0.0183491 0.375 10.5758 0.375 23.6064C0.375 33.9107 6.98262 42.6699 16.1848 45.8867C17.424 46.1978 17.2342 45.3172 17.2342 44.716V40.6291C10.0781 41.4675 9.78809 36.732 9.3082 35.941C8.33789 34.2851 6.04395 33.8633 6.72949 33.0722C8.35898 32.2338 10.0201 33.2832 11.9449 36.1256C13.3371 38.1875 16.0529 37.8394 17.4293 37.4966C17.7299 36.2574 18.3732 35.15 19.2592 34.2904C11.8447 32.9615 8.75449 28.4369 8.75449 23.058C8.75449 20.4476 9.61406 18.0482 11.3016 16.1129C10.2258 12.9224 11.4018 10.1908 11.56 9.78475C14.6238 9.51053 17.809 11.9785 18.0568 12.1736C19.7971 11.7043 21.7852 11.4564 24.0105 11.4564C26.2465 11.4564 28.2398 11.7148 29.9959 12.1894C30.5918 11.7359 33.5449 9.616 36.3926 9.8744C36.5455 10.2805 37.6951 12.9488 36.6826 16.0971C38.3912 18.0377 39.2613 20.4582 39.2613 23.0738C39.2613 28.4633 36.15 32.9931 28.7145 34.3009C29.3513 34.9273 29.857 35.6742 30.202 36.4982C30.547 37.3221 30.7243 38.2065 30.7236 39.0998V45.0324C30.7658 45.507 30.7236 45.9763 31.5146 45.9763C40.8539 42.8281 47.5775 34.0056 47.5775 23.6117C47.5775 10.5758 37.0096 0.0236226 23.9789 0.0236226Z" fill="#5E5E5E"/>
</svg>
