<svg width="49" height="49" viewBox="0 0 49 49" fill="none" xmlns="http://www.w3.org/2000/svg">
<path d="M24.5 0.980042C11.5101 0.980042 0.97998 11.5101 0.97998 24.5C0.97998 37.4899 11.5101 48.02 24.5 48.02C37.4899 48.02 48.02 37.4899 48.02 24.5C48.02 11.5101 37.4899 0.980042 24.5 0.980042ZM33.5454 27.516C33.5454 27.516 35.6254 29.5691 36.1375 30.5221C36.1522 30.5417 36.1595 30.5613 36.1644 30.5711C36.3727 30.9215 36.4217 31.1934 36.3188 31.3968C36.1473 31.7349 35.5593 31.9015 35.3584 31.9162H31.6834C31.4286 31.9162 30.8945 31.85 30.2477 31.4041C29.7503 31.0562 29.2603 30.4854 28.7826 29.9292C28.0696 29.1011 27.4522 28.3857 26.8299 28.3857C26.7509 28.3856 26.6723 28.398 26.5972 28.4225C26.1268 28.5744 25.5241 29.2457 25.5241 31.0342C25.5241 31.5928 25.0831 31.9137 24.7719 31.9137H23.0888C22.5155 31.9137 19.5289 31.7128 16.8829 28.9223C13.644 25.5045 10.7285 18.6494 10.704 18.5857C10.5203 18.1423 10.9 17.9046 11.3141 17.9046H15.0258C15.5207 17.9046 15.6824 18.206 15.7951 18.473C15.9274 18.7842 16.4125 20.0214 17.2088 21.413C18.4999 23.6817 19.2913 24.6029 19.9258 24.6029C20.0448 24.6015 20.1617 24.5713 20.2664 24.5147C21.0945 24.0541 20.9401 21.1019 20.9034 20.4894C20.9034 20.3742 20.9009 19.1688 20.4771 18.5906C20.1733 18.1717 19.6563 18.0124 19.3427 17.9536C19.4697 17.7785 19.6369 17.6365 19.8303 17.5396C20.3987 17.2554 21.4228 17.2137 22.4395 17.2137H23.0055C24.108 17.2284 24.3922 17.2995 24.7915 17.3999C25.6 17.5935 25.6172 18.1153 25.5461 19.9014C25.5241 20.4085 25.502 20.9818 25.502 21.658C25.502 21.805 25.4947 21.9618 25.4947 22.1284C25.4702 23.0374 25.4408 24.0688 26.0827 24.4927C26.1664 24.5452 26.2632 24.5732 26.362 24.5735C26.5849 24.5735 27.2562 24.5735 29.0741 21.4547C29.6348 20.4508 30.122 19.4077 30.5319 18.3334C30.5686 18.2697 30.6764 18.0737 30.8038 17.9977C30.8979 17.9498 31.0021 17.9254 31.1076 17.9267H35.4711C35.9464 17.9267 36.2722 17.9977 36.3335 18.1815C36.4413 18.473 36.3139 19.3624 34.322 22.0598L33.4327 23.2334C31.627 25.6001 31.627 25.7201 33.5454 27.516Z" fill="#5E5E5E"/>
</svg>
